<svg width="640" height="512" viewBox="0 0 640 512" fill="none" xmlns="http://www.w3.org/2000/svg">
<path d="M96 208C96 146.14 146.14 96.9 207.1 96.9C259.75 96.9 303.6 133.35 315.6 182.32C334.7 173.1 354.7 168 375.1 168C379.707 168 384.252 168.381 388.78 168.82L412.91 134.06C418.055 126.646 413.806 116.39 404.926 114.79L317.2 98.78L301.2 10.21C299.6 1.32499 289.4 -2.91901 281.9 2.22599L208 53.54L134.1 2.22499C126.6 -2.92001 116.4 1.32599 114.8 10.21L98.78 98.78L10.21 114.8C1.32598 116.4 -2.92202 126.7 2.22298 134.1L53.523 208.04L2.22398 281.9C-2.92102 289.314 1.32648 299.57 10.207 301.17L98.78 317.2L114.79 405.78C116.394 414.661 126.65 418.91 134.06 413.762L144.77 406.33C147.495 371.18 164.62 339.82 190.6 318.23C137.1 309.8 96 263.9 96 208ZM128 208C128 252.18 163.82 288 208 288C217.729 288 226.93 286.004 235.56 282.824C242.562 249.174 261.09 219.974 287.13 199.384C282.8 159.3 249.2 128 208 128C163.8 128 128 163.8 128 208ZM575.2 325.6C575.325 323.6 575.945 321.856 575.945 319.981C575.945 284.601 547.195 255.981 512.845 255.981C500.225 255.981 488.595 259.73 478.715 265.98C461.095 227.1 422.215 200.88 376.815 200.88C315.065 200.88 264.815 251 264.815 311.98C264.815 314.98 265.568 317.723 265.693 320.598C216.063 324.348 176.812 365.338 176.812 415.968C175.1 469 218.1 512 271.1 512H543.1C596.1 512 639.1 469.01 639.1 416.01C639.1 373.9 612.7 338.6 575.2 325.6Z" fill="#5C98B5"/>
</svg>
